<?xml version="1.0" encoding="UTF-8"?><svg id="Layer_2" xmlns="http://www.w3.org/2000/svg" viewBox="0 0 224.05 37.39"><defs><style>.cls-1{fill:#ebebeb;}.cls-1,.cls-2{stroke-width:0px;}.cls-2{fill:#fff;}</style></defs><g id="Layer_1-2"><path class="cls-2" d="M95.41,29.02c.83,0,1.72-.46,3.1-1.96-.37,1.2.07,1.96,1.06,1.96,1.11,0,2.04-1.17,3.04-2.39l4.18-5.1c.9-1.1,1.57-1.78,2.29-1.78.67,0,.55.81-.36,1.96-.79,1-5.7,7.16-5.7,7.16h2.07l5.06-6.57c1.52-1.97,2.55-2.55,3.12-2.55.3,0,.37.22.37.44,0,.61-.46,1.15-1.86,2.91l-4.61,5.77h2.02l5.04-6.54c1.9-2.47,2.54-2.58,2.96-2.58.29,0,.36.22.36.43,0,1.5-4.21,4.56-4.21,7.33,0,.82.62,1.52,1.78,1.52,3.25,0,6.61-7.06,6.61-10.84,0-3.17-1.85-4.73-3.99-4.73-3.07,0-4.18,1.69-4.18,2.93,0,1.07.56,1.64,1.6,1.64,1.46,0,2.48-1.67,2.48-2.15,0-.08-.03-.09-.08-.12-.56,1.32-1.47,1.75-2.18,1.75-.8,0-1.22-.44-1.22-1.21,0-.87.94-2.44,3.38-2.44,2.26,0,3.6,1.45,3.6,4.32,0,4.99-3.33,10.21-5.78,10.21-.57,0-.73-.3-.73-.63,0-.82,1.3-2.06,2.39-3.71.86-1.3,1.72-2.56,1.72-3.7,0-.96-.42-1.37-1.13-1.37s-1.58.52-3,2.07c.25-.93.34-2.07-.85-2.07-.62,0-1.71.44-3.27,2.22.46-1.43.04-2.22-.94-2.22s-1.64.71-2.38,1.62l-3.69,4.51c-1.36,1.66-2.61,3.43-3.41,3.43-.52,0-.75-.81.12-1.9l5.97-7.51h-2.2l-.48.66c-.09-.51-.49-.76-.96-.76-1.58,0-3.55,1.13-5.02,2.6-1.23,1.23-2.3,3.01-2.83,4.38-.78,1.01-2.08,2.54-3.03,2.54-.65,0-.79-.81.08-1.9l5.97-7.51h-2.2s-2.5,3.42-4.14,5.67h0c-.44.57-1.8,2.31-2.23,2.73-.7.7-1.29,1.02-1.71,1.02-.65,0-.79-.81.08-1.9.77-.97,9.37-11.79,9.37-11.79h-2.17s-5.53,7.28-7.56,9.94c-.44.57-1.8,2.31-2.23,2.73-.7.7-1.29,1.02-1.71,1.02-.65,0-.79-.81.08-1.9.77-.97,9.37-11.79,9.37-11.79h-2.17s-6.21,8.17-7.88,10.37h0s0,.02,0,.02l-.03.04s-.04.05-.06.07c-.55.75-2.31,3.19-3.51,3.19-.65,0-.79-.81.08-1.9l5.97-7.51h-2.2s-2.85,3.9-4.46,6.1c-1.61,2.2-.93,3.78.5,3.78,1.26,0,2.1-.97,2.77-1.76-.14,1.08.47,1.76,1.4,1.76,1.26,0,2.14-.97,2.81-1.76-.14,1.08.47,1.76,1.4,1.76,1.29,0,2.18-1.02,2.86-1.82-.17,1.12.45,1.82,1.41,1.82,1.09,0,2.12-1.01,2.82-1.81-.07.84.12,1.81,1.09,1.81M99.63,21.31c1.37-1.37,2.17-1.56,2.46-1.56s.43.17.43.53c0,1.1-3.73,5.81-4.66,6.75-.47.47-1.37,1.28-2.12,1.28-1.49,0,1.24-4.33,3.9-7M87.56,15.93c.22-.63-.08-1.15-.67-1.15s-1.26.52-1.48,1.15c-.22.64.08,1.15.67,1.15s1.26-.51,1.48-1.15M98.73,17.08c.59,0,1.26-.51,1.48-1.15.22-.63-.08-1.15-.67-1.15s-1.26.52-1.48,1.15c-.22.64.08,1.15.67,1.15ZM66.22,31.4c-3.92,0-6.23-2.38-6.79-5.59.2.05.41.08.62.09.49,0,1.2-.1,1.97-.48.34.27.76.42,1.28.42,4.07,0,7.08-7.64,4.51-9.79,2.15-.99,4.43-1.33,6.04-.4-.42.3-.81.63-1.17.99-3.09,3.09-4.53,9.39-6.87,11.92-.25-.08-.53-.16-.87-.16-.47,0-.89.22-.95.49-.06.27.27.49.74.49.35,0,.71-.08,1.17-.36.25.03.5.04.75.04.95,0,1.84-.41,2.88-1.44,2.71-2.71,5.04-8.42,6.63-9.51-1.49,2.51-3.09,8.17-5.26,10.48-.24-.1-.5-.19-.84-.19-.47,0-.89.22-.95.49-.06.27.27.49.74.49.36,0,.73-.09,1.21-.39.26.07.57.13.88.13.78,0,1.73-.44,2.52-1.23,2.87-2.87,6.49-8.77,9.56-11.84,1.12-1.12,3.11-2.65,5.77-2.65,2.4,0,3.99,1.47,3.99,1.47.06-.06.03-.15-.1-.28-1.3-1.3-2.86-1.85-4.28-1.85s-3.8.49-6.68,3.38c-3.08,3.08-6.58,9.25-8.87,11.54-.96.96-1.59,1.18-2.09,1.18-.12,0-.25-.02-.37-.05.38-.28.83-.67,1.38-1.23,3.76-3.76,4.61-10.67,6.71-12.77-.15-.15-1.17.09-2.97,1.89-2.9,2.9-4.55,7.97-7.41,10.83-.9.9-1.83,1.27-2.42,1.27-.12,0-.24-.02-.35-.04.37-.27.8-.66,1.32-1.18,2.11-2.11,4.37-8.48,6.83-11.6,2.75-.13,2.71-1.44,1.83-1.44-.5,0-1.22.33-1.92.78-.69-.61-1.87-1.06-3.49-1.06-1.72,0-3.36.48-4.8,1.27-3.15,0-7.5,3.33-7.5,8.96,0,.16,0,.32.01.47-.76-.5-1.43-1.42-1.43-2.98,0-4.52,6.89-10.02,15.01-10.02,3.24,0,6.55,1.08,8.6,2.57l.12-.14c-1.26-1.26-4.34-3.23-9.67-3.23-7.01,0-14.74,4.12-14.74,10.79,0,1.81,1.07,3.02,2.17,3.59.49,4.03,3.81,6.42,7.2,6.42h92.05v-.53h-91.68ZM67.3,16.3c2.76,1.74-.32,9.08-3.8,9.08-.39,0-.7-.1-.95-.26,1.14-.75,2.33-2.18,3.1-4.85l-.16-.06c-.58,1.76-1.8,3.63-3.3,4.59-.42-.51-.56-1.27-.56-1.99,0-2.21,2.65-4.97,5.67-6.51h0ZM59.3,24.25c0-3.53,3.06-7.77,5.99-8.27-2.58,1.69-4.31,4.34-4.31,6.66,0,.96.22,1.85.71,2.45-.48.23-.97.35-1.48.35-.23,0-.53-.04-.84-.15-.04-.35-.06-.69-.06-1.04"/><rect class="cls-2" x="135.81" y="13.73" width="4.39" height="15.36"/><polygon class="cls-2" points="150.4 29.09 150.4 13.73 154.87 13.73 154.87 24.35 157.9 24.35 157.9 29.09 150.4 29.09"/><polygon class="cls-2" points="141.82 29.09 141.82 13.73 146.3 13.73 146.3 24.35 149.32 24.35 149.32 29.09 141.82 29.09"/><polygon class="cls-2" points="129.79 29.09 129.79 23.01 127.63 23.01 127.63 29.09 123.23 29.09 123.23 13.73 127.63 13.73 127.63 19.14 129.79 19.14 129.79 13.73 134.18 13.73 134.18 29.09 129.79 29.09"/><path class="cls-2" d="M203.62,7.44c-.08-.06-.17-.12-.26-.19-.02-.34-.06-.64.13-.92.12-.18.19-.4.28-.6.02-.05.08-.08.13-.15.34.29.7.53.97.89-.33.48-.73.79-1.26.97M201.48,14.2c-.09-.1-.15-.18-.21-.25-.07-.36.08-.68.21-1v1.25ZM206.25,6.04c-.35-.43-.66-.89-1.14-1.19-.1-.07-.18-.18-.26-.27-.1-.12-.19-.25-.28-.37-.15-.18-.32-.34-.35-.58-.01-.08-.06-.15-.13-.19-.18-.08-.3-.1-.55-.13-.33-.03-.54-.19-.74-.43.06-.18.08-.23.13-.41.13-.03.25-.07.37-.1.34-.08.49-.36.35-.69-.06-.13-.15-.25-.23-.38-.02-.89-.58-1.29-1.3-1.31-.13,0-.19,0-.29.02-.28.05-.44.25-.57.47-.22.05-.46,0-.6.2-.04.05-.04.12,0,.17l.29.4c-.05.38,0,.76.18,1.09-.26.4-.55.69-.98.82-.31.09-.61.23-.94.35-.04.02-.07.04-.09.08-.09.22-.19.44-.27.67-.08.22-.12.45-.18.67-.08.28-.08.57-.21.84-.19.38-.31.8-.52,1.16-.36.63-.54,1.33-.82,1.99-.11.25-.22.5-.28.76-.05.19-.13.34-.29.41-.34.15-.51.43-.65.74-.1.22-.17.45-.04.66.02.03.02.06.02.09-.03.13-.06.25-.1.36-.04.13-.08.25-.12.38-.07.22-.13.39-.2.61-.08.22-.21.42-.42.53-.06.03-.1.09-.1.15,0,.06,0,.12,0,.18.02.19.07.39.06.58-.01.22-.07.43-.13.65-.19.73-.41,1.45-.58,2.19-.14.57-.22,1.24-.27,1.93-.01.23-.03.3-.11.61h.04s.02-.05.03-.07c.02-.09.05-.2.16-.45.09-.2.2-.39.44-.96.32-.74.55-1.49.7-2.21.07-.34.15-.68.19-1.03.02-.18.08-.31.23-.41.21-.15.37-.34.52-.56.05-.08.05-.18-.01-.26-.08-.1-.15-.19-.22-.26-.03-.03-.04-.08-.04-.13.02-.36.04-.68.06-.99.03-.38.09-.6.29-1.17,0-.01.01-.02.03-.02.24,0,.47-.07.68.09,0,0,.01.02,0,.05l-.09.23c-.04.11.06.22.16.18.04-.02.08-.05.11-.09.06-.09.09-.19.12-.29.05-.22-.05-.4-.14-.56-.01-.02-.01-.05,0-.08.11-.21.2-.41.3-.61.02-.03.04-.06.06-.08.12-.11.23-.23.31-.37.3-.51.58-1.03.86-1.55.28-.51.59-1,.76-1.57.03-.1.1-.2.15-.29.16.07.14.19.15.29.03.47.06.95.1,1.42.02.23.06.46.1.75,0,.05,0,.1-.02.14-.13.3-.1.69-.1,1.08,0,.05,0,.1,0,.15.02.25-.04.5-.1.74-.07.32-.13.65-.14.97-.02.77,0,1.54-.02,2.3-.01.4.14.65.44.89.45.36.88.76,1.33,1.16-.02.13-.01.26-.06.37-.24.6-.29,1.21-.21,1.82,0,0,0,.01,0,.02.03.1.04.2.04.29h0s0,.06,0,.08c0,.02,0,.03,0,.05,0,.04,0,.09,0,.13,0,0,0,.02,0,.03,0,.04,0,.07-.02.1,0,.01,0,.02,0,.04,0,.1,0,.21,0,.31,0,.12.02.2.11.25.04.02.07.04.11.06.08.05.17.06.25,0,.04-.03.08,0,.1.06.01.04.02.08.02.12,0,.1.03.18.09.24.07.08.15.15.24.19.05.02.11.04.16.06.03.01.06.02.1.02.09,0,.18,0,.27,0,.06,0,.12,0,.18-.03.02-.01.04-.01.07-.02.02,0,.04,0,.06-.02.03-.01.04-.04.04-.08,0-.03,0-.07,0-.1-.02-.17-.07-.32-.14-.45-.07-.14-.16-.27-.25-.39-.07-.09-.13-.19-.19-.28-.02-.02-.04-.04-.05-.07-.04-.07-.08-.14-.11-.22-.01-.04-.02-.08-.01-.12,0-.1.02-.2.08-.29,0,0,0,0,0,0,0,0,0-.02.01-.03,0,0,0,0,0,0,.07-.24.15-.48.23-.74.09.07.17.14.28.23.17-.08.34-.17.53-.26.11.21.23.43.35.64.04.05.07.11.11.16.05.05.09.11.12.17,0,0,0,0,0,0,0-.01,0,0,.01.01.06.05.11.11.15.18,0,.01.01.02.02.03h0s0,.02,0,.03h0s.04.09.04.14c0,0,0,.02,0,.03,0,.05,0,.1-.02.14-.02.13-.04.27-.06.4-.01.09-.01.19,0,.28.01.11.06.19.13.26.06.05.11.05.17,0,.03-.03.06-.06.09-.09.12-.15.21-.31.29-.49.1-.22.14-.45.14-.7,0-.02,0-.03,0-.04h0v-.87s.05,0,.07.01c.06-.18.14-.35.18-.54.04-.19.12-.4-.07-.54-.19-.05-.35-.11-.51-.12-.17-.01-.34.03-.53.05-.37-.37-.73-.77-1.02-1.2.07-.47.15-.9.21-1.35.07-.55.1-1.1.23-1.64.02-.1.06-.26.07-.36.07-.57.13-1.14.2-1.71,0-.02,0-.03.02-.05.07-.07.14-.15.21-.23.03-.03.04-.07.03-.11-.05-.33-.09-.65-.14-.94.08-.11.14-.18.15-.2.04-.19.08-.33.11-.47.02.01.04.02.06.04.16-.09.32-.16.47-.26.18-.11.35-.24.52-.37.4-.32.8-.64,1.2-.97.08-.06.16-.18.15-.26,0-.21,0-.44-.15-.61"/><path class="cls-2" d="M186.12,22.47l-1.34-5.02c-.39-1.46-1-1.87-1.96-1.61-1.06.28-1.37,1.05-1.04,2.28l1.38,5.15-2.78.75-1.38-5.13c-.32-1.21-.94-1.76-1.9-1.51-1.09.29-1.39,1.13-1.04,2.42l1.34,5.02-2.78.75-2.5-9.31,2.6-.7.27.99h.03c.25-1.01,1.03-1.69,2.22-2.01,1.21-.32,2.26.04,3.13.94.39-1.24,1.23-2.11,2.51-2.45,2.08-.56,3.8.35,4.49,2.95l1.54,5.75-2.79.75Z"/><path class="cls-2" d="M189.49,21.57l-2.49-9.31,2.62-.7.27.99h.03c.22-1.13.91-1.66,1.98-1.94l.75,2.8c-1.66.46-2.03,1.23-1.74,2.28l1.38,5.13-2.79.75Z"/><path class="cls-2" d="M188.54,31.25c-.18,1-1.09,1.78-2.23,2.09-2.72.73-5.24-.84-5.99-3.64-.76-2.85.65-5.55,3.34-6.27,1.21-.32,2.25-.12,2.9.48h.03s-.23-.88-.23-.88l2.79-.75,2.23,8.32c.34,1.26.43,2.26.26,2.99-.33,1.47-1.89,2.95-4.22,3.58-2.63.71-4.75-.33-5.46-2.04l3.22-.86c.5.6,1.19.67,1.87.49,1.41-.38,2.02-1.53,1.56-3.22l-.07-.27ZM187.61,27.72c-.36-1.36-1.57-2.15-2.92-1.79-1.24.33-1.95,1.64-1.61,2.91.35,1.31,1.53,2.16,2.87,1.8,1.36-.36,2.02-1.58,1.66-2.93"/><path class="cls-2" d="M192.13,31.46l-2.49-9.31,2.62-.7.27.99h.03c.22-1.13.91-1.65,1.98-1.94l.75,2.8c-1.66.46-2.03,1.23-1.74,2.28l1.38,5.13-2.79.75Z"/><path class="cls-2" d="M197.83,25.85c.43,1.02,1.51,1.48,2.65,1.18.76-.2,1.17-.62,1.46-1.33l2.85-.76c-.34,2.27-1.72,3.91-3.68,4.44-2.68.72-5.51-.84-6.25-3.61-.72-2.68.81-5.57,3.54-6.31,2.79-.75,5.5.88,6.28,3.77.07.27.11.49.13.76l-6.98,1.87ZM201.59,22.83c-.47-.9-1.48-1.31-2.56-1.02-1.01.27-1.72,1.11-1.67,2.16l4.23-1.13Z"/><path class="cls-2" d="M207.1,23.36c.43,1.02,1.51,1.48,2.65,1.18.75-.2,1.16-.62,1.46-1.33l2.85-.76c-.35,2.27-1.72,3.91-3.68,4.44-2.68.72-5.51-.84-6.25-3.61-.72-2.68.81-5.57,3.54-6.31,2.79-.75,5.5.88,6.28,3.77.07.27.11.49.13.76l-6.98,1.87ZM210.85,20.34c-.47-.9-1.48-1.31-2.56-1.02-1.01.27-1.72,1.11-1.67,2.16l4.23-1.13Z"/><path class="cls-2" d="M220.77,23.78l-1.38-5.17c-.34-1.26-.93-1.73-1.95-1.45-1.12.3-1.43,1.05-1.09,2.31l1.38,5.13-2.78.75-2.5-9.31,2.6-.7.27.99h.03c.33-1.12,1.06-1.69,2.18-2,1.68-.45,3.71.01,4.45,2.77l1.59,5.94-2.79.75Z"/><polygon class="cls-2" points="221.22 13.07 221.14 12.76 222.05 12.51 222.13 12.83 221.86 12.9 222.15 13.99 221.79 14.08 221.5 13 221.22 13.07"/><polygon class="cls-2" points="223.21 12.2 223.19 13.2 223.18 13.2 222.66 12.35 222.19 12.47 222.57 13.88 222.9 13.79 222.6 12.73 223.19 13.71 223.43 13.65 223.45 12.51 223.45 12.51 223.72 13.57 224.05 13.48 223.68 12.08 223.21 12.2"/><path class="cls-1" d="M37.89,28.48c-.53.53-1.23.82-1.97.82s-1.43-.29-1.93-.82c-1.07-1.07-1.07-2.83,0-3.9.49-.53,1.19-.82,1.93-.82s1.48.29,1.97.82c1.11,1.07,1.11,2.83,0,3.9M33.99,14.83c.49-.53,1.19-.82,1.93-.82s1.48.29,1.97.82c.53.49.82,1.23.82,1.97s-.29,1.44-.82,1.97c-.53.53-1.23.82-1.97.82s-1.43-.29-1.93-.82c-.53-.49-.82-1.23-.82-1.97s.29-1.44.82-1.97M42.85,16.79v-.16c-.04-1.76-.74-3.49-2.05-4.72-2.71-2.71-7.09-2.71-9.8,0-1.35,1.27-2.09,3.07-2.05,4.92-.04,1.85.7,3.57,1.97,4.88-1.31,1.27-2.01,3.03-1.97,4.84,0,3.85,3.12,6.93,6.93,6.93h.04c3.69,0,6.72-2.87,6.93-6.56v-.53c0-1.76-.74-3.44-2.01-4.67,1.23-1.19,1.93-2.83,1.97-4.51.04-.16.04-.29.04-.41"/><path class="cls-2" d="M40.84,21.67l-.04-.04c-2.71-2.71-7.09-2.71-9.8,0l-.04.04.04.04c2.71,2.71,7.09,2.71,9.8,0l.04-.04Z"/><path class="cls-1" d="M23.41,28.48c-.53.53-1.23.82-1.97.82s-1.44-.29-1.93-.82c-1.07-1.07-1.07-2.83,0-3.9.49-.53,1.19-.82,1.93-.82,1.52,0,2.79,1.23,2.79,2.75,0,.74-.29,1.43-.82,1.97M19.52,14.83c.49-.53,1.19-.82,1.93-.82,1.52,0,2.79,1.23,2.79,2.79,0,.74-.29,1.44-.82,1.97-.53.53-1.23.82-1.97.82s-1.44-.29-1.93-.82c-.53-.49-.82-1.23-.82-1.97-.04-.74.29-1.44.82-1.97M28.37,16.79v-.16c0-1.76-.74-3.49-2.01-4.72-1.27-1.35-3.03-2.09-4.88-2.05-1.85-.04-3.65.7-4.92,2.05-1.35,1.27-2.09,3.07-2.05,4.92-.04,1.85.7,3.57,1.97,4.88-1.31,1.27-2.01,3.03-1.97,4.84-.04,1.85.7,3.65,2.05,4.92,1.27,1.31,3.07,2.09,4.92,2.05,3.69,0,6.72-2.87,6.93-6.56v-.53c0-1.76-.74-3.44-1.97-4.67,1.23-1.19,1.93-2.79,1.97-4.51-.04-.21-.04-.33-.04-.45"/><path class="cls-2" d="M26.41,21.67l-.04-.04c-1.27-1.35-3.03-2.09-4.88-2.05-1.85-.04-3.65.7-4.92,2.05l-.04.04.04.04c1.27,1.31,3.07,2.09,4.92,2.05,1.85.04,3.61-.74,4.88-2.05l.04-.04Z"/><path class="cls-1" d="M8.98,28.48c-.53.53-1.23.82-1.97.82s-1.44-.29-1.93-.82c-1.07-1.07-1.07-2.83,0-3.9.49-.53,1.19-.82,1.93-.82s1.48.29,1.97.82c1.07,1.07,1.07,2.83,0,3.9M5.04,14.83c.49-.53,1.19-.82,1.93-.82s1.48.29,1.97.82c.53.49.82,1.23.82,1.97s-.29,1.44-.82,1.97c-.53.53-1.23.82-1.97.82s-1.44-.29-1.93-.82c-.53-.49-.82-1.23-.82-1.97s.29-1.44.82-1.97M13.9,16.79v-.16c0-1.76-.74-3.49-2.05-4.72-1.27-1.31-3.03-2.09-4.88-2.05-1.85-.04-3.65.7-4.92,2.05C.7,13.19-.04,14.99,0,16.84c-.04,1.8.7,3.57,2.01,4.84C.7,22.94,0,24.71,0,26.51c-.04,1.85.7,3.65,2.05,4.92,1.27,1.31,3.07,2.09,4.92,2.05,1.84.04,3.61-.74,4.88-2.05,1.23-1.19,1.97-2.83,2.01-4.55v-.53c0-1.76-.74-3.44-2.01-4.67,1.23-1.19,1.93-2.79,1.97-4.51.08-.12.08-.25.08-.37"/><path class="cls-2" d="M11.93,21.67l-.04-.04c-1.27-1.35-3.03-2.09-4.88-2.05-1.85-.04-3.65.7-4.92,2.05l-.04.04.08.04c1.27,1.31,3.07,2.09,4.92,2.05,1.85.04,3.61-.74,4.88-2.05-.04,0-.04-.04,0-.04"/></g></svg>