<?xml version="1.0" encoding="UTF-8"?>
<svg id="Layer_1" data-name="Layer 1" xmlns="http://www.w3.org/2000/svg" xmlns:xlink="http://www.w3.org/1999/xlink" version="1.1" viewBox="0 0 109 32">
  <defs>
    <style>
      .cls-1 {
        fill: url(#linear-gradient);
      }

      .cls-1, .cls-2, .cls-3 {
        stroke-width: 0px;
      }

      .cls-4 {
        fill: none;
        stroke: #fff;
        stroke-linecap: round;
        stroke-width: .5px;
      }

      .cls-2 {
        fill-rule: evenodd;
      }

      .cls-2, .cls-3 {
        fill: #fff;
      }
    </style>
    <linearGradient id="linear-gradient" x1="81" y1="6.9" x2="81" y2="23.2" gradientTransform="translate(0 34) scale(1 -1)" gradientUnits="userSpaceOnUse">
      <stop offset="0" stop-color="#007c6f"/>
      <stop offset=".7" stop-color="#4aafc7"/>
    </linearGradient>
  </defs>
  <g>
    <path class="cls-2" d="M8.2,14c1.3,0,2.5.4,3.6,1.1,1.1.7,1.9,1.7,2.4,2.9.5,1.2.6,2.5.4,3.8-.3,1.3-.9,2.4-1.8,3.3-.9.9-2.1,1.5-3.3,1.8s-2.6.1-3.8-.4c-1.2-.5-2.2-1.3-2.9-2.4-.7-1.1-1.1-2.3-1.1-3.6,0-.9.2-1.7.5-2.5.3-.8.8-1.5,1.4-2.1.6-.6,1.3-1.1,2.1-1.4.8-.3,1.6-.5,2.5-.5ZM8.2,18c.5,0,1,.2,1.4.4.4.3.8.7,1,1.2.2.5.2,1,.1,1.5-.1.5-.4,1-.7,1.3-.4.4-.8.6-1.3.7-.5,0-1,0-1.5-.2-.5-.2-.9-.5-1.2-1-.3-.4-.4-.9-.4-1.4,0-.3,0-.7.2-1s.3-.6.6-.8c.2-.2.5-.4.8-.6.3-.1.7-.2,1-.2Z"/>
    <path class="cls-2" d="M21.3,14c1.3,0,2.5.4,3.6,1.1,1.1.7,1.9,1.7,2.4,2.9.5,1.2.6,2.5.4,3.8-.3,1.3-.9,2.4-1.8,3.3-.9.9-2.1,1.5-3.3,1.8-1.3.3-2.6.1-3.8-.4-1.2-.5-2.2-1.3-2.9-2.4-.7-1.1-1.1-2.3-1.1-3.6,0-.9.2-1.7.5-2.5.3-.8.8-1.5,1.4-2.1.6-.6,1.3-1.1,2.1-1.4.8-.3,1.6-.5,2.5-.5ZM21.3,18c.5,0,1,.2,1.4.4s.8.7,1,1.2c.2.5.2,1,.1,1.5-.1.5-.4,1-.7,1.3-.4.4-.8.6-1.3.7-.5,0-1,0-1.5-.2-.5-.2-.9-.5-1.2-1-.3-.4-.4-.9-.4-1.4s0-.7.2-1c.1-.3.3-.6.6-.8.2-.2.5-.4.8-.6.3-.1.7-.2,1-.2Z"/>
    <path class="cls-2" d="M34.4,14c1.3,0,2.5.4,3.6,1.1,1.1.7,1.9,1.7,2.4,2.9.5,1.2.6,2.5.4,3.8-.3,1.3-.9,2.4-1.8,3.3-.9.9-2.1,1.5-3.3,1.8-1.3.3-2.6.1-3.8-.4-1.2-.5-2.2-1.3-2.9-2.4-.7-1.1-1.1-2.3-1.1-3.6,0-.9.2-1.7.5-2.5.3-.8.8-1.5,1.4-2.1.6-.6,1.3-1.1,2.1-1.4.8-.3,1.6-.5,2.5-.5ZM34.4,18c.5,0,1,.2,1.4.4s.8.7,1,1.2c.2.5.2,1,.1,1.5-.1.5-.4,1-.7,1.3-.4.4-.8.6-1.3.7-.5,0-1,0-1.5-.2-.5-.2-.9-.5-1.2-1-.3-.4-.4-.9-.4-1.4s0-.7.2-1c.1-.3.3-.6.6-.8.2-.2.5-.4.8-.6.3-.1.7-.2,1-.2Z"/>
    <path class="cls-2" d="M8.2,4.9c1.3,0,2.5.4,3.6,1.1,1.1.7,1.9,1.7,2.4,2.9.5,1.2.6,2.5.4,3.8-.3,1.3-.9,2.4-1.8,3.3-.9.9-2.1,1.5-3.3,1.8-1.3.3-2.6.1-3.8-.4-1.2-.5-2.2-1.3-2.9-2.4-.7-1.1-1.1-2.3-1.1-3.6,0-.9.2-1.7.5-2.5.3-.8.8-1.5,1.4-2.1.6-.6,1.3-1.1,2.1-1.4.8-.3,1.6-.5,2.5-.5ZM8.2,8.8c.5,0,1,.2,1.4.4.4.3.8.7,1,1.2.2.5.2,1,.1,1.5-.1.5-.4,1-.7,1.3-.4.4-.8.6-1.3.7-.5,0-1,0-1.5-.2-.5-.2-.9-.5-1.2-1-.3-.4-.4-.9-.4-1.4,0-.3,0-.7.2-1,.1-.3.3-.6.6-.8.2-.2.5-.4.8-.6s.7-.2,1-.2Z"/>
    <path class="cls-2" d="M21.3,4.9c1.3,0,2.5.4,3.6,1.1,1.1.7,1.9,1.7,2.4,2.9.5,1.2.6,2.5.4,3.8-.3,1.3-.9,2.4-1.8,3.3-.9.9-2.1,1.5-3.3,1.8-1.3.3-2.6.1-3.8-.4-1.2-.5-2.2-1.3-2.9-2.4-.7-1.1-1.1-2.3-1.1-3.6,0-.9.2-1.7.5-2.5.3-.8.8-1.5,1.4-2.1.6-.6,1.3-1.1,2.1-1.4.8-.3,1.6-.5,2.5-.5ZM21.3,8.8c.5,0,1,.2,1.4.4s.8.7,1,1.2c.2.5.2,1,.1,1.5-.1.5-.4,1-.7,1.3-.4.4-.8.6-1.3.7-.5,0-1,0-1.5-.2-.5-.2-.9-.5-1.2-1-.3-.4-.4-.9-.4-1.4,0-.3,0-.7.2-1,.1-.3.3-.6.6-.8.2-.2.5-.4.8-.6.3-.1.7-.2,1-.2Z"/>
    <path class="cls-2" d="M34.4,4.9c1.3,0,2.5.4,3.6,1.1,1.1.7,1.9,1.7,2.4,2.9.5,1.2.6,2.5.4,3.8-.3,1.3-.9,2.4-1.8,3.3-.9.9-2.1,1.5-3.3,1.8-1.3.3-2.6.1-3.8-.4-1.2-.5-2.2-1.3-2.9-2.4-.7-1.1-1.1-2.3-1.1-3.6,0-.9.2-1.7.5-2.5.3-.8.8-1.5,1.4-2.1.6-.6,1.3-1.1,2.1-1.4.8-.3,1.6-.5,2.5-.5ZM34.4,8.8c.5,0,1,.2,1.4.4s.8.7,1,1.2c.2.5.2,1,.1,1.5-.1.5-.4,1-.7,1.3-.4.4-.8.6-1.3.7-.5,0-1,0-1.5-.2-.5-.2-.9-.5-1.2-1-.3-.4-.4-.9-.4-1.4,0-.3,0-.7.2-1,.1-.3.3-.6.6-.8.2-.2.5-.4.8-.6.3-.1.7-.2,1-.2Z"/>
  </g>
  <path class="cls-1" d="M102,14.8c-3.4,0-5.9,2.7-5.9,6.1h0c0,1.2.3,2.3.8,3.2l-2.9-3.8,4.8-5.3h-4.7l-2.9,3.3v-7.6h-3.9v9.7c-.2-3.3-2.7-5.7-6.2-5.7s-4.5,1.3-5.5,3.3l1.2-3h-4.2l-2,6.2-2-6.2h-4.3l1.1,2.7c-.9-1.6-2.5-2.9-5.1-2.9s-5.9,2.7-5.9,6.1h0c0,3.5,2.5,6.1,6.1,6.1s3.7-.7,4.6-1.8v.9h1.1v-4.3h-4.5v1.1h.9c-.4.5-1.2.8-1.9.8s-1.8-.5-2.1-1.4c0-.2-.1-.4-.1-.6,0,0,0-.5,0-.5h7.7v-.5c0-.6,0-1.2-.2-1.8l3.2,7.9h3.1l3-7.8c-.2.6-.2,1.2-.2,1.8h0c0,3.5,2.6,6.1,6.2,6.1s6-2.4,6.2-5.7v5.6h3.9v-3.2l.6-.6,2.9,3.8h4.5l-1.1-1.5c1.1,1.1,2.6,1.7,4.4,1.7,2.9,0,4.4-1.5,5.3-3.2l-3-1.5c-.4.8-1.1,1.4-2.1,1.4s-.7,0-1-.2c-.3,0-.5-.3-.7-.5-.2-.2-.3-.4-.4-.7,0-.2-.1-.4-.1-.6,0,0,0-.5,0-.5h7.7v-.5c0-2.8-1.8-5.9-5.9-5.9h0ZM62.2,19.6h-3.8c.2-.8.8-1.4,1.9-1.4,1.7,0,2,1.1,1.9,1.4ZM83.3,21c0,1.4-.9,2.4-2.3,2.4s-2.3-.9-2.3-2.4h0c0-1.5,1-2.4,2.3-2.4s2.3,1,2.3,2.4h0ZM104.1,19.6h-3.8c.2-.8.8-1.4,1.9-1.4,1.7,0,2,1.1,1.9,1.4Z"/>
  <g>
    <path class="cls-3" d="M57.6,8.9h-.4l-.5-1.3h-1.6l-.6,1.3h-.4l1.8-4.1,1.6,4.1ZM55.9,5.7l-.7,1.7h1.3l-.6-1.7h0Z"/>
    <path class="cls-3" d="M62.8,7.3c0,.9-.7,1.7-1.6,1.7s-1-.3-1.3-.6v1.9h-.3v-4.5h.3v.5c.3-.3.7-.6,1.2-.6.9,0,1.6.7,1.6,1.7h0ZM61.2,8.7c.8,0,1.2-.7,1.2-1.4s-.5-1.4-1.3-1.4-1.3.5-1.3,1.3.6,1.4,1.3,1.4h0Z"/>
    <path class="cls-3" d="M64.5,6c-.5,0-.7.5-.7.8v2.2h-.3v-3.2h.3v.4c.2-.3.4-.4.8-.4,0,0,.2,0,.4,0l-.2.3s0,0-.3,0h0Z"/>
    <path class="cls-3" d="M65.3,7.3c0-.9.7-1.7,1.6-1.7s1.6.8,1.6,1.7-.7,1.7-1.6,1.7-1.6-.8-1.6-1.7ZM67,6c-.8,0-1.3.6-1.3,1.4s.6,1.3,1.3,1.3,1.3-.6,1.3-1.4-.6-1.4-1.3-1.4Z"/>
    <path class="cls-3" d="M71.4,7.9v-2.2h.3v2.2c0,.7-.6,1.1-1.2,1.1s-1.2-.4-1.2-1.1v-2.1h.3v2.1c0,.5.4.8.9.8s.8-.5.8-.8h0Z"/>
    <path class="cls-3" d="M72.5,7.3c0-.9.7-1.6,1.5-1.6s1,.3,1.2.6v-1.4h.3v4h-.3v-.6c-.3.3-.7.6-1.3.6-.9,0-1.5-.8-1.5-1.7h0ZM74,6c-.7,0-1.2.6-1.2,1.3s.5,1.4,1.2,1.4,1.3-.5,1.3-1.4-.5-1.3-1.3-1.3h0Z"/>
    <path class="cls-3" d="M80.1,6.8v2.1h-.3v-2.3c0-.4-.3-.7-.7-.7s-.8.5-.8.8v2.1h-.3v-3.2h.3v.4c.1-.2.5-.5.8-.5.5,0,.7.3.9.6.2-.3.5-.6,1-.6.7,0,1,.6,1,.9v2.4h-.3v-2.4c0-.3-.1-.6-.7-.6s-.8.5-.8.9Z"/>
    <path class="cls-3" d="M82.7,7.3c0-.9.6-1.6,1.6-1.6s1.5.7,1.5,1.5v.2h-2.7c0,.8.5,1.4,1.3,1.4s.9-.3,1.1-.7l.2.2c0,.1-.5.9-1.4.9s-1.6-.8-1.6-1.7h0ZM84.2,6c-.7,0-1.1.5-1.2,1.1h2.4c0-.6-.5-1.1-1.2-1.1Z"/>
    <path class="cls-3" d="M88.6,6.8v2.1h-.3v-2.3c0-.4-.3-.7-.7-.7s-.8.5-.8.8v2.1h-.3v-3.2h.3v.4c.1-.2.5-.5.8-.5.5,0,.7.3.9.6.2-.3.5-.6,1-.6.7,0,1,.6,1,.9v2.4h-.3v-2.4c0-.3-.1-.6-.7-.6s-.8.5-.8.9Z"/>
    <path class="cls-3" d="M94.5,7.3c0,1-.7,1.7-1.6,1.7s-1-.3-1.3-.6v.5h-.3v-4h.3v1.4c.3-.3.7-.6,1.3-.6,1,0,1.6.7,1.6,1.7h0ZM92.9,8.7c.7,0,1.2-.6,1.2-1.4s-.5-1.4-1.3-1.4-1.3.5-1.3,1.4.6,1.3,1.3,1.3Z"/>
    <path class="cls-3" d="M95,7.3c0-.9.6-1.6,1.6-1.6s1.5.7,1.5,1.5v.2h-2.7c0,.8.5,1.4,1.3,1.4s.9-.3,1.1-.7l.2.2c0,.1-.5.9-1.4.9s-1.6-.8-1.6-1.7h0ZM96.6,6c-.7,0-1.1.5-1.2,1.1h2.4c0-.6-.5-1.1-1.2-1.1Z"/>
    <path class="cls-3" d="M99.8,6c-.5,0-.7.5-.7.8v2.2h-.3v-3.2h.3v.4c.2-.3.4-.4.8-.4,0,0,.2,0,.4,0l-.2.3s0,0-.3,0h0Z"/>
    <path class="cls-3" d="M102.1,7.3c0-.9.7-1.7,1.6-1.7s1.6.8,1.6,1.7-.7,1.7-1.6,1.7-1.6-.8-1.6-1.7ZM103.7,6c-.8,0-1.3.6-1.3,1.4s.6,1.3,1.3,1.3,1.3-.6,1.3-1.4-.6-1.4-1.3-1.4Z"/>
    <path class="cls-3" d="M106.5,6v2.9h-.3v-2.9h-.3v-.3h.3c0-.7.3-.9.8-.9s.3,0,.4,0v.3s-.2,0-.4,0c-.3,0-.5.2-.5.6h0c0,0,.7,0,.7,0v.3h-.7Z"/>
  </g>
  <line class="cls-4" x1="48.2" y1=".2" x2="48.2" y2="31.8"/>
</svg>