<?xml version="1.0" encoding="UTF-8"?><svg id="Layer_2" xmlns="http://www.w3.org/2000/svg" xmlns:xlink="http://www.w3.org/1999/xlink" viewBox="0 0 83.27 37.66"><defs><style>.cls-1{fill:url(#linear-gradient);}.cls-1,.cls-2{stroke-width:0px;}.cls-2{fill:#fff;}</style><linearGradient id="linear-gradient" x1="41.68" y1="37.66" x2="41.68" y2="12.43" gradientUnits="userSpaceOnUse"><stop offset="0" stop-color="#007c6f"/><stop offset=".72" stop-color="#4aafc7"/></linearGradient></defs><g id="Layer_1-2"><path class="cls-1" d="M74.16,18.67c-5.34,0-9.15,4.14-9.15,9.51v.03c0,1.86.45,3.56,1.26,4.98l-4.51-5.88,7.38-8.28h-7.31l-4.57,5.17v-11.78h-6.04v15.12c-.27-5.12-4.25-8.88-9.6-8.88-3.88,0-7.02,2.01-8.57,5.05l1.83-4.68h-6.54l-3.07,9.58-3.1-9.58h-6.61l1.64,4.15c-1.36-2.55-3.95-4.51-7.97-4.51C3.89,18.67.09,22.81.09,28.18v.03c0,5.44,3.81,9.45,9.45,9.45,3.12,0,5.67-1.16,7.12-2.73v1.35h1.68v-6.71h-6.93v1.76h1.39c-.61.71-1.79,1.29-2.89,1.29-1.46,0-2.8-.8-3.32-2.19-.11-.3-.16-.61-.18-.93,0-.07-.03-.81,0-.81h11.94v-.85c0-.9-.12-1.82-.37-2.72l4.89,12.33h4.81l4.71-12.04c-.25.87-.38,1.79-.38,2.76v.03c0,5.44,4.07,9.45,9.61,9.45s9.32-3.79,9.6-8.91v8.61h6.04v-4.97l.87-.97,4.44,5.94h6.91l-1.77-2.31c1.65,1.64,3.98,2.61,6.76,2.61,4.47,0,6.78-2.37,8.21-4.94l-4.64-2.4c-.6,1.27-1.64,2.17-3.2,2.17-.53,0-1.06-.06-1.56-.25-.41-.15-.79-.39-1.09-.7-.3-.31-.52-.69-.67-1.1-.11-.3-.16-.61-.18-.93,0-.07-.03-.81,0-.81h11.94v-.85c0-4.34-2.8-9.18-9.11-9.18ZM12.47,26.01h-5.97c.37-1.2,1.2-2.14,2.97-2.14,2.7,0,3.04,1.7,3,2.14ZM45.15,28.22c0,2.2-1.4,3.67-3.5,3.67-1.97,0-3.57-1.47-3.57-3.67v-.07c0-2.2,1.54-3.7,3.5-3.7,2.1,0,3.57,1.53,3.57,3.7v.07ZM77.4,26.01h-5.97c.37-1.2,1.2-2.14,2.97-2.14,2.7,0,3.04,1.7,3,2.14Z"/><path class="cls-2" d="M5.29,6.44h-.6l-.78-2.01H1.44l-.87,2.01h-.58L2.76.11l2.53,6.33ZM2.74,1.34l-1.09,2.62h2.08l-1-2.62Z"/><path class="cls-2" d="M13.35,3.95c0,1.43-1.07,2.58-2.43,2.58-.93,0-1.52-.45-1.94-1v2.92h-.51V1.47h.51v.83c.42-.5,1.08-.93,1.92-.93,1.38,0,2.46,1.16,2.46,2.58ZM10.91,6.07c1.29,0,1.93-1.07,1.93-2.16,0-1.18-.82-2.1-1.94-2.1s-2,.74-2,2.09.9,2.16,2.01,2.16Z"/><path class="cls-2" d="M16.07,1.87c-.74,0-1.04.75-1.04,1.22v3.35h-.51V1.47h.51v.57c.26-.41.66-.67,1.22-.67,0,0,.38.02.6.13l-.31.53s-.15-.15-.48-.15Z"/><path class="cls-2" d="M17.29,3.96c0-1.43,1.12-2.59,2.54-2.59s2.55,1.17,2.55,2.58-1.13,2.58-2.54,2.58-2.55-1.17-2.55-2.57ZM19.85,1.84c-1.17,0-2.09.92-2.09,2.14,0,1.08.96,2.08,2.07,2.08,1.19,0,2.09-.96,2.09-2.1s-.9-2.12-2.07-2.12Z"/><path class="cls-2" d="M26.69,4.81V1.47h.51s0,1.9,0,3.35c0,1.07-.97,1.72-1.79,1.72-.98,0-1.85-.61-1.85-1.75V1.47h.51v3.31c0,.8.67,1.3,1.34,1.3.87,0,1.28-.71,1.28-1.26Z"/><path class="cls-2" d="M28.38,3.94c0-1.43,1.02-2.51,2.38-2.51.93,0,1.5.4,1.93.96V.24h.49v6.21h-.5v-.92c-.4.52-1.09,1-1.94,1-1.38,0-2.37-1.17-2.37-2.59ZM30.78,1.88c-1.14,0-1.9.95-1.9,2.03,0,1.18.76,2.13,1.88,2.13s1.98-.76,1.98-2.11c0-1.21-.84-2.05-1.95-2.05Z"/><path class="cls-2" d="M40.26,3.19v3.25h-.51v-3.51c0-.6-.47-1.11-1.12-1.11-.72,0-1.21.71-1.21,1.3v3.31h-.51V1.47h.51v.61c.23-.37.79-.71,1.25-.71.73,0,1.16.44,1.36.88.26-.44.83-.88,1.49-.88,1.13,0,1.49.91,1.49,1.34v3.73h-.51v-3.67c0-.47-.23-.97-1.04-.97s-1.2.76-1.2,1.39Z"/><path class="cls-2" d="M44.19,3.9c0-1.37.94-2.53,2.41-2.53,1.23,0,2.28,1.03,2.28,2.3,0,0,0,.15,0,.29h-4.21c0,1.19.81,2.1,1.94,2.1.79,0,1.46-.52,1.76-1.12l.38.24c-.11.2-.77,1.34-2.15,1.34-1.53,0-2.41-1.26-2.41-2.63ZM46.57,1.81c-1.12,0-1.73.81-1.86,1.7h3.72c-.12-.92-.76-1.7-1.86-1.7Z"/><path class="cls-2" d="M53.4,3.19v3.25h-.51v-3.51c0-.6-.47-1.11-1.12-1.11-.72,0-1.21.71-1.21,1.3v3.31h-.51V1.47h.51v.61c.23-.37.79-.71,1.25-.71.73,0,1.16.44,1.36.88.26-.44.83-.88,1.49-.88,1.13,0,1.49.91,1.49,1.34v3.73h-.51v-3.67c0-.47-.23-.97-1.04-.97s-1.2.76-1.2,1.39Z"/><path class="cls-2" d="M62.51,3.94c0,1.55-1.06,2.59-2.42,2.59-.93,0-1.52-.41-1.96-.92v.83h-.51V.24h.51v2.1c.41-.53,1.06-1,1.94-1,1.51,0,2.45,1.13,2.45,2.61ZM60.09,6.05c1.09,0,1.92-.92,1.92-2.1s-.78-2.16-1.96-2.16c-1.09,0-1.98.78-1.98,2.2,0,1.23.93,2.06,2.02,2.06Z"/><path class="cls-2" d="M63.41,3.9c0-1.37.94-2.53,2.41-2.53,1.23,0,2.28,1.03,2.28,2.3,0,0,0,.15,0,.29h-4.21c0,1.19.81,2.1,1.94,2.1.79,0,1.46-.52,1.76-1.12l.38.24c-.11.2-.77,1.34-2.15,1.34-1.53,0-2.41-1.26-2.41-2.63ZM65.79,1.81c-1.12,0-1.73.81-1.86,1.7h3.72c-.12-.92-.76-1.7-1.86-1.7Z"/><path class="cls-2" d="M70.83,1.87c-.74,0-1.04.75-1.04,1.22v3.35h-.51V1.47h.51v.57c.26-.41.66-.67,1.22-.67,0,0,.38.02.6.13l-.31.53s-.15-.15-.48-.15Z"/><path class="cls-2" d="M74.31,3.96c0-1.43,1.12-2.59,2.54-2.59s2.55,1.17,2.55,2.58-1.13,2.58-2.54,2.58-2.55-1.17-2.55-2.57ZM76.87,1.84c-1.17,0-2.09.92-2.09,2.14,0,1.08.96,2.08,2.07,2.08,1.19,0,2.09-.96,2.09-2.1s-.9-2.12-2.07-2.12Z"/><path class="cls-2" d="M81.22,1.95v4.5h-.51V1.95h-.52v-.49h.52v-.08c0-.94.49-1.39,1.31-1.39.19,0,.45.02.6.07v.45s-.27-.09-.57-.09c-.5,0-.83.34-.83.94v.1h1.09v.49h-1.09Z"/></g></svg>