<?xml version="1.0" encoding="UTF-8"?><svg id="Layer_2" xmlns="http://www.w3.org/2000/svg" xmlns:xlink="http://www.w3.org/1999/xlink" viewBox="0 0 241.71 81.21"><defs><style>.cls-1{fill:url(#linear-gradient);}.cls-1,.cls-2{stroke-width:0px;}.cls-2{fill:#fff;}</style><linearGradient id="linear-gradient" x1="129.68" y1="81.21" x2="129.68" y2="13.25" gradientUnits="userSpaceOnUse"><stop offset="0" stop-color="#007c6f"/><stop offset=".72" stop-color="#4aafc7"/></linearGradient></defs><g id="Layer_1-2"><path class="cls-1" d="M217.17,30.06c-14.38,0-24.63,11.15-24.63,25.62v.09c0,5.02,1.2,9.59,3.4,13.42l-12.16-15.85,19.87-22.3h-19.69l-12.32,13.93V13.25h-16.27v40.73c-.74-13.79-11.45-23.92-25.85-23.92-10.46,0-18.91,5.41-23.07,13.59l4.93-12.6h-17.62l-8.27,25.8-8.36-25.8h-17.8l4.43,11.17c-3.65-6.86-10.64-12.15-21.46-12.15-14.38,0-24.63,11.15-24.63,25.62v.09c0,14.66,10.25,25.44,25.44,25.44,8.42,0,15.27-3.12,19.17-7.36v3.63h4.54v-18.07h-18.66v4.75h3.74c-1.64,1.9-4.82,3.48-7.79,3.48-3.93,0-7.54-2.16-8.94-5.89-.3-.8-.43-1.65-.48-2.5-.01-.18-.08-2.18.01-2.18h32.15v-2.3c0-2.42-.33-4.9-1-7.31l13.17,33.21h12.95l12.69-32.42c-.66,2.34-1.02,4.83-1.02,7.43v.09c0,14.66,10.97,25.44,25.89,25.44s25.11-10.21,25.85-24v23.19h16.27v-13.4l2.34-2.61,11.96,16h18.61l-4.77-6.22c4.45,4.41,10.73,7.03,18.21,7.03,12.05,0,18.25-6.38,22.12-13.3l-12.5-6.47c-1.62,3.41-4.41,5.84-8.63,5.84-1.42,0-2.86-.17-4.2-.67-1.11-.41-2.12-1.04-2.93-1.9-.81-.84-1.39-1.87-1.8-2.96-.3-.8-.43-1.65-.48-2.5-.01-.18-.08-2.18.01-2.18h32.15v-2.3c0-11.69-7.55-24.72-24.54-24.72ZM51.01,49.83h-16.09c.99-3.24,3.24-5.75,8-5.75,7.28,0,8.18,4.58,8.09,5.75ZM139.04,55.77c0,5.93-3.77,9.89-9.44,9.89-5.3,0-9.62-3.96-9.62-9.89v-.18c0-5.93,4.14-9.98,9.44-9.98,5.66,0,9.62,4.13,9.62,9.98v.18ZM225.89,49.83h-16.09c.99-3.24,3.24-5.75,8-5.75,7.28,0,8.18,4.58,8.09,5.75Z"/><path class="cls-2" d="M4.28.59l6.7,17.01L18.32,0l7.54,17.49L32.48.59h4.16l-10.55,25.9-7.73-17.81-7.5,17.81L0,.59h4.28Z"/><path class="cls-2" d="M50.33,0c7.14,0,11.3,5.79,11.3,13.36h-19.24c0,4.6,3.01,8.88,8.17,8.88,3.21,0,6.11-2.34,7.14-4.96l3.29,1.71c-1.59,3.29-5.67,6.66-10.51,6.66-7.38,0-11.98-6.03-11.98-12.85S43.11,0,50.33,0ZM42.67,10.35h14.95c-.36-3.57-2.74-7.06-7.34-7.06-4.2,0-7.22,3.49-7.61,7.06Z"/><path class="cls-2" d="M86.54,0c3.53,0,5.91,1.31,8.17,3.97V.59h3.69v24.35h-3.77v-3.29c-1.51,2.1-4.68,3.97-8.25,3.97-6.7,0-11.58-5.87-11.58-12.73S79.76,0,86.54,0ZM78.72,13.05c0,4.72,3.49,8.96,8.21,8.96s8.01-3.21,8.01-9.48c0-5.12-2.58-9-8.05-9-4.8,0-8.17,4.17-8.17,9.52Z"/><path class="cls-2" d="M108.27,12.1v12.85h-3.93V.59h3.85v3.45c1.51-2.74,3.61-3.89,6.27-3.89.83,0,1.78.2,2.66.48l-.95,3.85s-1.51-.52-2.7-.52c-4.4,0-5.2,5.39-5.2,8.13Z"/><path class="cls-2" d="M130.6,0c7.14,0,11.3,5.79,11.3,13.36h-19.24c0,4.6,3.01,8.88,8.17,8.88,3.21,0,6.11-2.34,7.14-4.96l3.29,1.71c-1.59,3.29-5.67,6.66-10.51,6.66-7.38,0-11.98-6.03-11.98-12.85s4.6-12.81,11.82-12.81ZM122.94,10.35h14.95c-.36-3.57-2.74-7.06-7.34-7.06-4.2,0-7.22,3.49-7.61,7.06Z"/></g></svg>